<svg xmlns="http://www.w3.org/2000/svg" width="512" height="640" viewBox="0 0 512 640">
<defs>
 <linearGradient id="skin" x1="0" y1="0" x2="1" y2="1"><stop stop-color="#f8d2aa"/><stop offset="1" stop-color="#d99169"/></linearGradient>
 <linearGradient id="denim" x1="0" y1="0" x2="0" y2="1"><stop stop-color="#5e91a8"/><stop offset="1" stop-color="#315f78"/></linearGradient>
 <linearGradient id="shirt" x1="0" y1="0" x2="1" y2="1"><stop stop-color="#7db6c5"/><stop offset="1" stop-color="#4f8999"/></linearGradient>
 <linearGradient id="hat" x1="0" y1="0" x2="1" y2="1"><stop stop-color="#f2ce76"/><stop offset=".55" stop-color="#d4a349"/><stop offset="1" stop-color="#a96e32"/></linearGradient>
 <linearGradient id="boot" x1="0" y1="0" x2="0" y2="1"><stop stop-color="#74513b"/><stop offset="1" stop-color="#3e3029"/></linearGradient>
</defs>
<!-- FRONT / DOWN: 4 genuine gait frames -->
<g transform="translate(0 0)"><ellipse cx="64" cy="150" rx="27" ry="6" fill="#2b3f30" opacity=".16"/><path d="M40 105 L49 105 L48 139 L38 139 ZM79 105 L88 105 L90 139 L80 139 Z" fill="#4a5560"/><path d="M34 136q10-4 22 0v10H31q0-7 3-10zM75 136q10-4 21 0 3 4 2 10H75z" fill="url(#boot)"/><path d="M37 72q9-16 27-16t27 16l-5 43H42z" fill="url(#denim)" stroke="#294c5d" stroke-width="2"/><path d="M44 74h40v31H44z" fill="#47768b" opacity=".72"/><path d="M39 76q-10 12-8 29l9 9 7-7-2-29zM89 76q10 12 8 29l-9 9-7-7 2-29z" fill="url(#skin)" stroke="#9e634b" stroke-width="1.5"/><ellipse cx="64" cy="46" rx="25" ry="27" fill="url(#skin)" stroke="#7c503a" stroke-width="2"/><path d="M40 43q4-28 24-29 21 2 25 29-12-10-25-10-13 0-24 10z" fill="#64432f"/><ellipse cx="64" cy="19" rx="39" ry="9" fill="url(#hat)" stroke="#77512e" stroke-width="2"/><path d="M42 20q4-17 22-18 18 1 22 18z" fill="url(#hat)" stroke="#77512e" stroke-width="2"/><path d="M43 15q21 4 42 0" stroke="#a84b3d" stroke-width="4" fill="none"/><ellipse cx="54" cy="48" rx="2.8" ry="4" fill="#292522"/><ellipse cx="74" cy="48" rx="2.8" ry="4" fill="#292522"/><circle cx="53" cy="47" r=".8" fill="#fff"/><circle cx="73" cy="47" r=".8" fill="#fff"/><path d="M56 58q8 7 16 0" stroke="#b66a62" stroke-width="2" fill="none" stroke-linecap="round"/><path d="M48 73h32M51 78v25M77 78v25" stroke="#cbdcc7" stroke-width="1.6" opacity=".5"/><circle cx="55" cy="91" r="2" fill="#d7b55e"/><circle cx="73" cy="91" r="2" fill="#d7b55e"/></g>
<g transform="translate(128 0)"><ellipse cx="64" cy="150" rx="27" ry="6" fill="#2b3f30" opacity=".16"/><path d="M42 104l12 1-6 35-12-1zM76 105l10-1 7 31-11 3z" fill="#4a5560"/><path d="M31 135q13-5 25 2l-2 10H27q0-8 4-12zM79 134q9-3 19 0l5 9-23 4z" fill="url(#boot)"/><path d="M37 72q9-16 27-16t27 16l-5 43H42z" fill="url(#denim)" stroke="#294c5d" stroke-width="2"/><path d="M44 74h40v31H44z" fill="#47768b" opacity=".72"/><path d="M39 76q-11 7-14 23l8 12 8-4 4-29zM89 76q11 15 10 29l-10 8-7-7 1-28z" fill="url(#skin)" stroke="#9e634b" stroke-width="1.5"/><ellipse cx="64" cy="46" rx="25" ry="27" fill="url(#skin)" stroke="#7c503a" stroke-width="2"/><path d="M40 43q4-28 24-29 21 2 25 29-12-10-25-10-13 0-24 10z" fill="#64432f"/><ellipse cx="64" cy="19" rx="39" ry="9" fill="url(#hat)" stroke="#77512e" stroke-width="2"/><path d="M42 20q4-17 22-18 18 1 22 18z" fill="url(#hat)" stroke="#77512e" stroke-width="2"/><path d="M43 15q21 4 42 0" stroke="#a84b3d" stroke-width="4" fill="none"/><ellipse cx="54" cy="48" rx="2.8" ry="4" fill="#292522"/><ellipse cx="74" cy="48" rx="2.8" ry="4" fill="#292522"/><path d="M56 58q8 7 16 0" stroke="#b66a62" stroke-width="2" fill="none" stroke-linecap="round"/></g>
<g transform="translate(256 0)"><ellipse cx="64" cy="150" rx="27" ry="6" fill="#2b3f30" opacity=".16"/><path d="M43 105l10-1 7 31-11 3zM75 104l12 1-6 35-12-1z" fill="#4a5560"/><path d="M37 134q10-3 19 0l5 9-23 4zM76 135q13-5 25 2l-2 10H72q0-8 4-12z" fill="url(#boot)"/><path d="M37 72q9-16 27-16t27 16l-5 43H42z" fill="url(#denim)" stroke="#294c5d" stroke-width="2"/><path d="M44 74h40v31H44z" fill="#47768b" opacity=".72"/><path d="M39 76q-11 15-10 29l10 8 7-7-1-28zM89 76q11 7 14 23l-8 12-8-4-4-29z" fill="url(#skin)" stroke="#9e634b" stroke-width="1.5"/><ellipse cx="64" cy="46" rx="25" ry="27" fill="url(#skin)" stroke="#7c503a" stroke-width="2"/><path d="M40 43q4-28 24-29 21 2 25 29-12-10-25-10-13 0-24 10z" fill="#64432f"/><ellipse cx="64" cy="19" rx="39" ry="9" fill="url(#hat)" stroke="#77512e" stroke-width="2"/><path d="M42 20q4-17 22-18 18 1 22 18z" fill="url(#hat)" stroke="#77512e" stroke-width="2"/><path d="M43 15q21 4 42 0" stroke="#a84b3d" stroke-width="4" fill="none"/><ellipse cx="54" cy="48" rx="2.8" ry="4" fill="#292522"/><ellipse cx="74" cy="48" rx="2.8" ry="4" fill="#292522"/><path d="M56 58q8 7 16 0" stroke="#b66a62" stroke-width="2" fill="none" stroke-linecap="round"/></g>
<g transform="translate(384 0)"><ellipse cx="64" cy="150" rx="27" ry="6" fill="#2b3f30" opacity=".16"/><path d="M40 105 L49 105 L48 139 L38 139 ZM79 105 L88 105 L90 139 L80 139 Z" fill="#4a5560"/><path d="M34 136q10-4 22 0v10H31q0-7 3-10zM75 136q10-4 21 0 3 4 2 10H75z" fill="url(#boot)"/><path d="M37 72q9-16 27-16t27 16l-5 43H42z" fill="url(#denim)" stroke="#294c5d" stroke-width="2"/><path d="M44 74h40v31H44z" fill="#47768b" opacity=".72"/><path d="M39 76q-10 12-8 29l9 9 7-7-2-29zM89 76q10 12 8 29l-9 9-7-7 2-29z" fill="url(#skin)"/><ellipse cx="64" cy="46" rx="25" ry="27" fill="url(#skin)" stroke="#7c503a" stroke-width="2"/><path d="M40 43q4-28 24-29 21 2 25 29-12-10-25-10-13 0-24 10z" fill="#64432f"/><ellipse cx="64" cy="19" rx="39" ry="9" fill="url(#hat)" stroke="#77512e" stroke-width="2"/><path d="M42 20q4-17 22-18 18 1 22 18z" fill="url(#hat)" stroke="#77512e" stroke-width="2"/><path d="M43 15q21 4 42 0" stroke="#a84b3d" stroke-width="4"/><ellipse cx="54" cy="48" rx="2.8" ry="4" fill="#292522"/><ellipse cx="74" cy="48" rx="2.8" ry="4" fill="#292522"/></g>
<!-- RIGHT -->
<g transform="translate(0 160)"><ellipse cx="64" cy="150" rx="25" ry="6" fill="#2b3f30" opacity=".16"/><path d="M48 106h10l-2 34H45zM70 106h10l6 32H75z" fill="#4b5660"/><path d="M40 136h20v11H36q0-8 4-11zM73 134h19l7 9-25 4z" fill="url(#boot)"/><path d="M44 73q10-15 29-13 14 5 18 19l-8 37H48z" fill="url(#denim)" stroke="#294c5d" stroke-width="2"/><path d="M49 76h28v30H49z" fill="#47768b" opacity=".7"/><path d="M79 77q14 7 20 20l-3 10-9-3-12-24zM48 78q-8 13-6 25l8 7 6-6-2-25z" fill="url(#skin)"/><ellipse cx="69" cy="47" rx="24" ry="27" fill="url(#skin)" stroke="#7c503a" stroke-width="2"/><path d="M47 43q6-27 25-28 17 4 22 27-11-9-24-9-12 0-23 10z" fill="#64432f"/><ellipse cx="66" cy="19" rx="40" ry="9" fill="url(#hat)" stroke="#77512e" stroke-width="2"/><path d="M44 20q5-17 23-18 18 1 22 18z" fill="url(#hat)" stroke="#77512e" stroke-width="2"/><path d="M45 15q21 4 42 0" stroke="#a84b3d" stroke-width="4"/><ellipse cx="79" cy="48" rx="3" ry="4" fill="#292522"/><path d="M80 59q7 4 11-2" stroke="#b66a62" stroke-width="2" fill="none"/></g>
<g transform="translate(128 160)"><ellipse cx="64" cy="150" rx="27" ry="6" fill="#2b3f30" opacity=".16"/><path d="M48 105l12 2-9 32-12-2zM70 106l10-1 10 29-11 4z" fill="#4b5660"/><path d="M34 135q14-4 26 2l-3 10H30q0-8 4-12zM77 133h19l9 8-24 6z" fill="url(#boot)"/><path d="M44 73q10-15 29-13 14 5 18 19l-8 37H48z" fill="url(#denim)" stroke="#294c5d" stroke-width="2"/><path d="M78 78q16 4 23 17l-2 11-10-1-15-24zM48 78q-6 16-3 27l10 4 5-7-6-24z" fill="url(#skin)"/><ellipse cx="69" cy="47" rx="24" ry="27" fill="url(#skin)" stroke="#7c503a" stroke-width="2"/><path d="M47 43q6-27 25-28 17 4 22 27-11-9-24-9-12 0-23 10z" fill="#64432f"/><ellipse cx="66" cy="19" rx="40" ry="9" fill="url(#hat)" stroke="#77512e" stroke-width="2"/><path d="M44 20q5-17 23-18 18 1 22 18z" fill="url(#hat)" stroke="#77512e" stroke-width="2"/><path d="M45 15q21 4 42 0" stroke="#a84b3d" stroke-width="4"/><ellipse cx="79" cy="48" rx="3" ry="4" fill="#292522"/></g>
<g transform="translate(256 160)"><ellipse cx="64" cy="150" rx="28" ry="6" fill="#2b3f30" opacity=".16"/><path d="M48 107l10-2 9 29-11 4zM69 105l12 2-9 32-12-2z" fill="#4b5660"/><path d="M43 133h19l9 8-24 6zM72 135q14-4 26 2l-3 10H68q0-8 4-12z" fill="url(#boot)"/><path d="M44 73q10-15 29-13 14 5 18 19l-8 37H48z" fill="url(#denim)" stroke="#294c5d" stroke-width="2"/><path d="M78 78q10 13 8 26l-9 7-6-6 2-25zM48 78q9 7 12 21l-4 10-9-3-6-24z" fill="url(#skin)"/><ellipse cx="69" cy="47" rx="24" ry="27" fill="url(#skin)" stroke="#7c503a" stroke-width="2"/><path d="M47 43q6-27 25-28 17 4 22 27-11-9-24-9-12 0-23 10z" fill="#64432f"/><ellipse cx="66" cy="19" rx="40" ry="9" fill="url(#hat)" stroke="#77512e" stroke-width="2"/><path d="M44 20q5-17 23-18 18 1 22 18z" fill="url(#hat)" stroke="#77512e" stroke-width="2"/><path d="M45 15q21 4 42 0" stroke="#a84b3d" stroke-width="4"/><ellipse cx="79" cy="48" rx="3" ry="4" fill="#292522"/></g>
<g transform="translate(384 160)"><ellipse cx="64" cy="150" rx="25" ry="6" fill="#2b3f30" opacity=".16"/><path d="M48 106h10l-2 34H45zM70 106h10l6 32H75z" fill="#4b5660"/><path d="M40 136h20v11H36q0-8 4-11zM73 134h19l7 9-25 4z" fill="url(#boot)"/><path d="M44 73q10-15 29-13 14 5 18 19l-8 37H48z" fill="url(#denim)" stroke="#294c5d" stroke-width="2"/><path d="M79 77q14 7 20 20l-3 10-9-3-12-24zM48 78q-8 13-6 25l8 7 6-6-2-25z" fill="url(#skin)"/><ellipse cx="69" cy="47" rx="24" ry="27" fill="url(#skin)" stroke="#7c503a" stroke-width="2"/><path d="M47 43q6-27 25-28 17 4 22 27-11-9-24-9-12 0-23 10z" fill="#64432f"/><ellipse cx="66" cy="19" rx="40" ry="9" fill="url(#hat)" stroke="#77512e" stroke-width="2"/><path d="M44 20q5-17 23-18 18 1 22 18z" fill="url(#hat)" stroke="#77512e" stroke-width="2"/><path d="M45 15q21 4 42 0" stroke="#a84b3d" stroke-width="4"/><ellipse cx="79" cy="48" rx="3" ry="4" fill="#292522"/></g>
<!-- LEFT: mirrored side gait -->
<g transform="translate(128 320) scale(-1 1)"><g transform="translate(-128 0)"><ellipse cx="64" cy="150" rx="25" ry="6" fill="#2b3f30" opacity=".16"/><path d="M48 106h10l-2 34H45zM70 106h10l6 32H75z" fill="#4b5660"/><path d="M40 136h20v11H36q0-8 4-11zM73 134h19l7 9-25 4z" fill="url(#boot)"/><path d="M44 73q10-15 29-13 14 5 18 19l-8 37H48z" fill="url(#denim)" stroke="#294c5d" stroke-width="2"/><path d="M79 77q14 7 20 20l-3 10-9-3-12-24zM48 78q-8 13-6 25l8 7 6-6-2-25z" fill="url(#skin)"/><ellipse cx="69" cy="47" rx="24" ry="27" fill="url(#skin)" stroke="#7c503a" stroke-width="2"/><path d="M47 43q6-27 25-28 17 4 22 27-11-9-24-9-12 0-23 10z" fill="#64432f"/><ellipse cx="66" cy="19" rx="40" ry="9" fill="url(#hat)" stroke="#77512e" stroke-width="2"/><path d="M44 20q5-17 23-18 18 1 22 18z" fill="url(#hat)"/><path d="M45 15q21 4 42 0" stroke="#a84b3d" stroke-width="4"/><ellipse cx="79" cy="48" rx="3" ry="4" fill="#292522"/></g></g>
<g transform="translate(256 320) scale(-1 1)"><g transform="translate(-128 0)"><ellipse cx="64" cy="150" rx="27" ry="6" fill="#2b3f30" opacity=".16"/><path d="M48 105l12 2-9 32-12-2zM70 106l10-1 10 29-11 4z" fill="#4b5660"/><path d="M34 135q14-4 26 2l-3 10H30q0-8 4-12zM77 133h19l9 8-24 6z" fill="url(#boot)"/><path d="M44 73q10-15 29-13 14 5 18 19l-8 37H48z" fill="url(#denim)"/><path d="M78 78q16 4 23 17l-2 11-10-1-15-24zM48 78q-6 16-3 27l10 4 5-7-6-24z" fill="url(#skin)"/><ellipse cx="69" cy="47" rx="24" ry="27" fill="url(#skin)"/><path d="M47 43q6-27 25-28 17 4 22 27-11-9-24-9-12 0-23 10z" fill="#64432f"/><ellipse cx="66" cy="19" rx="40" ry="9" fill="url(#hat)"/><path d="M44 20q5-17 23-18 18 1 22 18z" fill="url(#hat)"/><path d="M45 15q21 4 42 0" stroke="#a84b3d" stroke-width="4"/><ellipse cx="79" cy="48" rx="3" ry="4" fill="#292522"/></g></g>
<g transform="translate(384 320) scale(-1 1)"><g transform="translate(-128 0)"><ellipse cx="64" cy="150" rx="28" ry="6" fill="#2b3f30" opacity=".16"/><path d="M48 107l10-2 9 29-11 4zM69 105l12 2-9 32-12-2z" fill="#4b5660"/><path d="M43 133h19l9 8-24 6zM72 135q14-4 26 2l-3 10H68q0-8 4-12z" fill="url(#boot)"/><path d="M44 73q10-15 29-13 14 5 18 19l-8 37H48z" fill="url(#denim)"/><path d="M78 78q10 13 8 26l-9 7-6-6 2-25zM48 78q9 7 12 21l-4 10-9-3-6-24z" fill="url(#skin)"/><ellipse cx="69" cy="47" rx="24" ry="27" fill="url(#skin)"/><path d="M47 43q6-27 25-28 17 4 22 27-11-9-24-9-12 0-23 10z" fill="#64432f"/><ellipse cx="66" cy="19" rx="40" ry="9" fill="url(#hat)"/><path d="M44 20q5-17 23-18 18 1 22 18z" fill="url(#hat)"/><path d="M45 15q21 4 42 0" stroke="#a84b3d" stroke-width="4"/><ellipse cx="79" cy="48" rx="3" ry="4" fill="#292522"/></g></g>
<g transform="translate(512 320) scale(-1 1)"><g transform="translate(-128 0)"><ellipse cx="64" cy="150" rx="25" ry="6" fill="#2b3f30" opacity=".16"/><path d="M48 106h10l-2 34H45zM70 106h10l6 32H75z" fill="#4b5660"/><path d="M40 136h20v11H36q0-8 4-11zM73 134h19l7 9-25 4z" fill="url(#boot)"/><path d="M44 73q10-15 29-13 14 5 18 19l-8 37H48z" fill="url(#denim)"/><path d="M79 77q14 7 20 20l-3 10-9-3-12-24zM48 78q-8 13-6 25l8 7 6-6-2-25z" fill="url(#skin)"/><ellipse cx="69" cy="47" rx="24" ry="27" fill="url(#skin)"/><path d="M47 43q6-27 25-28 17 4 22 27-11-9-24-9-12 0-23 10z" fill="#64432f"/><ellipse cx="66" cy="19" rx="40" ry="9" fill="url(#hat)"/><path d="M44 20q5-17 23-18 18 1 22 18z" fill="url(#hat)"/><path d="M45 15q21 4 42 0" stroke="#a84b3d" stroke-width="4"/><ellipse cx="79" cy="48" rx="3" ry="4" fill="#292522"/></g></g>
<!-- BACK / UP -->
<g transform="translate(0 480)"><ellipse cx="64" cy="150" rx="27" ry="6" fill="#2b3f30" opacity=".16"/><path d="M40 105h10l-2 35H38zM78 105h10l2 35H80z" fill="#4b5660"/><path d="M34 136h22v11H31q0-8 3-11zM76 136h20q3 4 2 11H75z" fill="url(#boot)"/><path d="M38 72q9-16 26-16t26 16l-4 43H42z" fill="url(#denim)" stroke="#294c5d" stroke-width="2"/><path d="M47 73h34v33H47z" fill="#3f7186"/><path d="M49 76l6 29M79 76l-6 29" stroke="#b9cdbd" stroke-width="2" opacity=".6"/><path d="M39 77q-9 12-8 28l9 8 7-7-2-28zM89 77q9 12 8 28l-9 8-7-7 2-28z" fill="url(#skin)"/><ellipse cx="64" cy="46" rx="25" ry="27" fill="#654632" stroke="#7c503a" stroke-width="2"/><ellipse cx="64" cy="19" rx="39" ry="9" fill="url(#hat)" stroke="#77512e" stroke-width="2"/><path d="M42 20q4-17 22-18 18 1 22 18z" fill="url(#hat)"/><path d="M43 15q21 4 42 0" stroke="#a84b3d" stroke-width="4"/></g>
<g transform="translate(128 480)"><ellipse cx="64" cy="150" rx="27" ry="6" fill="#2b3f30" opacity=".16"/><path d="M42 104l12 2-6 34-12-1zM76 105l10-1 7 31-11 3z" fill="#4b5660"/><path d="M31 135q13-4 25 2l-2 10H27q0-8 4-12zM79 134h19l5 9-23 4z" fill="url(#boot)"/><path d="M38 72q9-16 26-16t26 16l-4 43H42z" fill="url(#denim)" stroke="#294c5d" stroke-width="2"/><path d="M47 73h34v33H47z" fill="#3f7186"/><path d="M39 77q-11 8-13 23l8 11 8-4 4-28zM89 77q10 14 9 28l-10 7-7-7 2-27z" fill="url(#skin)"/><ellipse cx="64" cy="46" rx="25" ry="27" fill="#654632"/><ellipse cx="64" cy="19" rx="39" ry="9" fill="url(#hat)"/><path d="M42 20q4-17 22-18 18 1 22 18z" fill="url(#hat)"/><path d="M43 15q21 4 42 0" stroke="#a84b3d" stroke-width="4"/></g>
<g transform="translate(256 480)"><ellipse cx="64" cy="150" rx="27" ry="6" fill="#2b3f30" opacity=".16"/><path d="M43 105l10-1 7 31-11 3zM75 104l12 2-6 34-12-1z" fill="#4b5660"/><path d="M37 134h19l5 9-23 4zM76 135q13-4 25 2l-2 10H72q0-8 4-12z" fill="url(#boot)"/><path d="M38 72q9-16 26-16t26 16l-4 43H42z" fill="url(#denim)" stroke="#294c5d" stroke-width="2"/><path d="M47 73h34v33H47z" fill="#3f7186"/><path d="M39 77q-10 14-9 28l10 7 7-7-2-27zM89 77q11 8 13 23l-8 11-8-4-4-28z" fill="url(#skin)"/><ellipse cx="64" cy="46" rx="25" ry="27" fill="#654632"/><ellipse cx="64" cy="19" rx="39" ry="9" fill="url(#hat)"/><path d="M42 20q4-17 22-18 18 1 22 18z" fill="url(#hat)"/><path d="M43 15q21 4 42 0" stroke="#a84b3d" stroke-width="4"/></g>
<g transform="translate(384 480)"><ellipse cx="64" cy="150" rx="27" ry="6" fill="#2b3f30" opacity=".16"/><path d="M40 105h10l-2 35H38zM78 105h10l2 35H80z" fill="#4b5660"/><path d="M34 136h22v11H31q0-8 3-11zM76 136h20q3 4 2 11H75z" fill="url(#boot)"/><path d="M38 72q9-16 26-16t26 16l-4 43H42z" fill="url(#denim)"/><path d="M47 73h34v33H47z" fill="#3f7186"/><path d="M39 77q-9 12-8 28l9 8 7-7-2-28zM89 77q9 12 8 28l-9 8-7-7 2-28z" fill="url(#skin)"/><ellipse cx="64" cy="46" rx="25" ry="27" fill="#654632"/><ellipse cx="64" cy="19" rx="39" ry="9" fill="url(#hat)"/><path d="M42 20q4-17 22-18 18 1 22 18z" fill="url(#hat)"/><path d="M43 15q21 4 42 0" stroke="#a84b3d" stroke-width="4"/></g>
</svg>