<svg xmlns="http://www.w3.org/2000/svg" width="430" height="260" viewBox="0 0 430 260" shape-rendering="crispEdges"><rect x="38" y="82" width="354" height="150" fill="#e3cf9b"/><path d="M20 88L92 24h246l72 64v28H20z" fill="#9b563d"/><path d="M36 84L101 34h228l65 50z" fill="#b66545"/><path d="M48 72h334M70 55h290M100 38h230" stroke="#844831" stroke-width="5" opacity=".55"/><rect x="302" y="17" width="32" height="52" fill="#78513f"/><rect x="309" y="11" width="18" height="12" fill="#604235"/><path d="M50 111h330M50 139h330M50 168h330M50 197h330" stroke="#d4bb82" stroke-width="3" opacity=".7"/><rect x="175" y="132" width="78" height="100" fill="#704a32"/><rect x="186" y="143" width="56" height="89" fill="#85583a"/><circle cx="231" cy="184" r="6" fill="#e7c25f"/><rect x="72" y="122" width="72" height="66" fill="#78b7ce"/><rect x="286" y="122" width="72" height="66" fill="#78b7ce"/><rect x="78" y="128" width="60" height="54" fill="#a8d8e5"/><rect x="292" y="128" width="60" height="54" fill="#a8d8e5"/><path d="M108 128v54M78 155h60M322 128v54M292 155h60" stroke="#f3e7c5" stroke-width="7"/><rect x="22" y="226" width="386" height="16" fill="#8b613d"/><rect x="0" y="242" width="430" height="18" fill="#5d8f4b"/><rect x="138" y="221" width="154" height="9" fill="#a8794b"/><path d="M62 224h28v18H62zM343 224h27v18h-27z" fill="#6e4c33"/><circle cx="76" cy="220" r="17" fill="#4e984b"/><circle cx="352" cy="219" r="18" fill="#559f50"/><circle cx="68" cy="215" r="4" fill="#f0bd68"/><circle cx="358" cy="213" r="4" fill="#eaa0b5"/></svg>