<svg xmlns="http://www.w3.org/2000/svg" width="64" height="64" viewBox="0 0 64 64">
<defs><linearGradient id="w" x1="0" y1="0" x2="1" y2="1"><stop stop-color="#6d5042"/><stop offset="1" stop-color="#40332f"/></linearGradient></defs>
<path d="M6 9C15 5 26 7 34 6c9-1 17-3 24 3 2 9-1 16 0 24 1 9 4 17-2 23-9 2-17-1-25 0-10 1-18 3-25-2-2-8 1-15 0-23C5 23 3 16 6 9z" fill="url(#w)"/>
<path d="M10 17c10-4 20-3 29 0 7 2 12 2 17 0M9 32c11-4 22-2 31 1 7 2 11 2 16 0M9 47c10-3 20-2 29 1 8 2 13 2 18-1" fill="none" stroke="#302824" stroke-width="3.8" stroke-linecap="round" opacity=".64"/>
<path d="M11 14c9-2 18-1 27 1M12 29c10-2 19-1 29 1M12 44c9-2 18-1 27 1" fill="none" stroke="#8e7868" stroke-width="1.6" stroke-linecap="round" opacity=".62"/>
<g fill="#a8a49b" opacity=".32"><ellipse cx="17" cy="24" rx="5" ry="1.3"/><ellipse cx="47" cy="42" rx="6" ry="1.4"/><ellipse cx="30" cy="53" rx="4.2" ry="1.1"/></g>
</svg>