<svg xmlns="http://www.w3.org/2000/svg" width="144" height="180" viewBox="0 0 144 180" shape-rendering="crispEdges"><ellipse cx="73" cy="166" rx="39" ry="9" fill="#000" opacity=".14"/><rect x="62" y="92" width="21" height="65" fill="#754a2f"/><rect x="68" y="93" width="8" height="65" fill="#97613a"/><path d="M62 120l-19 20h14l12-9zM83 114l23 18H91l-12-7z" fill="#754a2f"/><circle cx="72" cy="72" r="47" fill="#3f8f49"/><circle cx="44" cy="76" r="31" fill="#4da255"/><circle cx="99" cy="78" r="34" fill="#4a9b51"/><circle cx="72" cy="43" r="35" fill="#58aa5b"/><circle cx="91" cy="48" r="27" fill="#69b764"/><circle cx="51" cy="48" r="26" fill="#62b05f"/><path d="M38 67h15v9H38zM78 27h17v9H78zM91 85h18v8H91zM55 93h14v8H55z" fill="#78c46d" opacity=".7"/><circle cx="47" cy="61" r="4" fill="#d86f63"/><circle cx="95" cy="63" r="4" fill="#d86f63"/><circle cx="71" cy="53" r="4" fill="#e4b96a"/></svg>