<svg xmlns="http://www.w3.org/2000/svg" width="64" height="64" viewBox="0 0 64 64">
<defs><linearGradient id="w" x1="0" y1="0" x2="0" y2="1"><stop stop-color="#77c4cf"/><stop offset=".55" stop-color="#5aa9bd"/><stop offset="1" stop-color="#438aa8"/></linearGradient></defs>
<rect width="64" height="64" fill="url(#w)"/>
<path d="M0 10c8 3 14 3 22 0s15-3 22 0 13 3 20 0" fill="none" stroke="#d7f1eb" stroke-width="2" opacity=".55"/>
<path d="M6 26c7 2 12 2 18-1 7-3 13-3 20 0 5 2 10 3 16 1" fill="none" stroke="#c6ebe6" stroke-width="1.8" opacity=".48"/>
<path d="M0 43c9-3 16-3 25 0 7 2 14 2 21-1 6-2 11-2 18 0" fill="none" stroke="#d8f4ea" stroke-width="2.2" opacity=".42"/>
<path d="M12 56c8-2 14-1 20 1 8 2 14 2 22-1" fill="none" stroke="#9dd9db" stroke-width="1.5" opacity=".55"/>
<ellipse cx="15" cy="18" rx="9" ry="3" fill="#d9faf0" opacity=".12"/><ellipse cx="49" cy="35" rx="11" ry="4" fill="#eefdf6" opacity=".09"/>
<path d="M3 4c6 3 10 3 16 1M39 4c7 3 13 3 21 0" stroke="#ffffff" stroke-width="1.2" opacity=".15" fill="none"/>
</svg>