<svg xmlns="http://www.w3.org/2000/svg" viewBox="0 0 260 285"><defs><linearGradient id="tr" x1="0" x2="1"><stop stop-color="#54311f"/><stop offset=".5" stop-color="#9b6843"/><stop offset="1" stop-color="#654028"/></linearGradient><radialGradient id="g"><stop stop-color="#a9cf64"/><stop offset=".55" stop-color="#5c974a"/><stop offset="1" stop-color="#316a43"/></radialGradient></defs><ellipse cx="130" cy="257" rx="88" ry="16" fill="#283f23" opacity=".18"/><path d="M99 247 C108 214 104 182 114 154 C120 136 124 116 122 91 C137 113 145 134 144 155 C143 185 154 217 164 247 Z" fill="url(#tr)"/><path d="M117 166 C84 146 59 129 40 104 M137 164 C174 143 201 126 219 101 M126 128 C102 107 87 91 78 70 M140 126 C164 104 178 87 185 68" stroke="#6d462c" stroke-width="12" stroke-linecap="round" fill="none"/><g fill="url(#g)"><circle cx="43" cy="109" r="42"/><circle cx="73" cy="82" r="49"/><circle cx="111" cy="67" r="52"/><circle cx="151" cy="67" r="52"/><circle cx="190" cy="84" r="49"/><circle cx="220" cy="111" r="41"/><circle cx="69" cy="132" r="46"/><circle cx="111" cy="121" r="54"/><circle cx="158" cy="120" r="55"/><circle cx="199" cy="132" r="45"/></g><g fill="#d7e97d" opacity=".55"><ellipse cx="83" cy="54" rx="18" ry="10"/><ellipse cx="130" cy="43" rx="20" ry="11"/><ellipse cx="181" cy="57" rx="18" ry="10"/></g><path d="M86 246 C103 238 113 238 130 246 C146 236 161 237 179 246" stroke="#799f51" stroke-width="13" stroke-linecap="round" fill="none"/><g fill="#f5df66"><circle cx="95" cy="243" r="3"/><circle cx="109" cy="249" r="3"/><circle cx="163" cy="244" r="3"/></g></svg>