<svg xmlns="http://www.w3.org/2000/svg" viewBox="0 0 230 280"><defs><linearGradient id="tr" x1="0" x2="1"><stop stop-color="#5b341f"/><stop offset=".48" stop-color="#a56a3e"/><stop offset="1" stop-color="#6b3e24"/></linearGradient><radialGradient id="f"><stop stop-color="#b7db69"/><stop offset=".55" stop-color="#6ca34e"/><stop offset="1" stop-color="#376f44"/></radialGradient></defs><ellipse cx="115" cy="252" rx="78" ry="14" fill="#31452a" opacity=".17"/><path d="M102 244 C94 212 91 190 103 166 C117 139 145 121 152 95 C158 74 150 54 136 40 C160 47 177 66 178 91 C179 122 149 151 132 173 C115 196 117 220 128 244 Z" fill="url(#tr)"/><path d="M126 163 C93 153 69 137 48 116 M142 143 C173 134 193 121 207 104 M153 110 C128 97 111 82 99 61" stroke="#75452a" stroke-width="11" stroke-linecap="round" fill="none"/><g fill="url(#f)"><circle cx="48" cy="107" r="36"/><circle cx="77" cy="82" r="43"/><circle cx="112" cy="70" r="45"/><circle cx="148" cy="74" r="44"/><circle cx="182" cy="100" r="39"/><circle cx="68" cy="132" r="38"/><circle cx="117" cy="119" r="48"/><circle cx="167" cy="129" r="39"/></g><g fill="#d8ec8a" opacity=".65"><circle cx="73" cy="63" r="8"/><circle cx="120" cy="50" r="7"/><circle cx="170" cy="78" r="8"/></g><g fill="#7cab50"><ellipse cx="70" cy="244" rx="28" ry="10"/><ellipse cx="156" cy="246" rx="30" ry="10"/></g><g fill="#f1d65c"><circle cx="78" cy="240" r="3"/><circle cx="88" cy="247" r="3"/><circle cx="150" cy="242" r="3"/></g></svg>