<svg xmlns="http://www.w3.org/2000/svg" viewBox="0 0 180 300"><defs><linearGradient id="tr" x1="0" x2="1"><stop stop-color="#5d3a26"/><stop offset=".5" stop-color="#9a6842"/><stop offset="1" stop-color="#4d2d1d"/></linearGradient><linearGradient id="lg" x1="0" y1="1" x2="0" y2="0"><stop stop-color="#2f7042"/><stop offset=".55" stop-color="#62a84d"/><stop offset="1" stop-color="#b8db63"/></linearGradient></defs><ellipse cx="90" cy="276" rx="50" ry="11" fill="#2f4a26" opacity=".16"/><path d="M75 268 C79 221 77 176 85 129 C89 104 92 80 91 48 C101 80 103 108 100 132 C96 174 103 219 107 268 Z" fill="url(#tr)"/><path d="M88 164 C65 147 51 128 43 105 M99 143 C121 126 134 108 143 88 M92 110 C73 96 62 80 56 63" stroke="#714a31" stroke-width="9" stroke-linecap="round" fill="none"/><g fill="url(#lg)"><ellipse cx="67" cy="75" rx="34" ry="45"/><ellipse cx="104" cy="54" rx="38" ry="50"/><ellipse cx="124" cy="96" rx="36" ry="48"/><ellipse cx="77" cy="126" rx="38" ry="48"/><ellipse cx="111" cy="145" rx="39" ry="49"/></g><g fill="#d6ec7c" opacity=".72"><ellipse cx="96" cy="31" rx="16" ry="12"/><ellipse cx="53" cy="69" rx="13" ry="10"/><ellipse cx="127" cy="81" rx="12" ry="9"/></g><g fill="#7daf55"><ellipse cx="57" cy="269" rx="22" ry="8"/><ellipse cx="121" cy="270" rx="23" ry="8"/></g></svg>